<?xml version="1.0" encoding="utf-8"?>
<!-- Generator: Adobe Illustrator 21.0.0, SVG Export Plug-In . SVG Version: 6.00 Build 0)  -->
<svg version="1.1" id="Layer_3" xmlns="http://www.w3.org/2000/svg" xmlns:xlink="http://www.w3.org/1999/xlink" x="0px" y="0px"
	 viewBox="0 0 410.6 85.1" style="enable-background:new 0 0 410.6 85.1;" xml:space="preserve">
<style type="text/css">
	.st0{fill:#464444;}
	.st1{fill:#EF482C;}
</style>
<g>
	<path class="st0" d="M284.5,7c0.3,0.5,0.8,0.2,1.2,0.2c12.6,0,25.3,0,37.9,0c4.6,0,8.4,2.4,9.3,7.4c0.3,1.6-0.1,3.2-0.4,4.8
		c-1.2,5.2-2.5,10.4-4.1,15.5c-1.2,3.8-3.6,6.8-7,8.9c-1.5,1-3.3,1.4-5.2,1.6c-3.9,0.4-7.8,0.1-11.7,0.2c-0.3,0-0.7-0.1-0.9,0.2
		c-0.2,0.4,0.2,0.6,0.4,0.8c2.4,3.4,4.9,6.7,7.4,10.1c2.4,3.3,4.8,6.6,7.3,9.9c0.9,1.2,0.3,2.4-1.1,2.7c-2.2,0.5-4.4,0.2-6.7,0.2
		c-2.7,0.1-5.4,0-8.2,0c-1.1,0-1.9-0.4-2.5-1.3c-3.4-4.8-6.8-9.5-10.3-14.2c-3.5-4.6-6.8-9.4-10.3-14.1c-0.9,1.4-1.1,3-1.5,4.4
		c-1.7,6.3-3.3,12.6-4.9,18.9c-0.4,1.7-0.9,3.4-1.4,5c-0.1,0.5-0.3,1-1.1,1c-2.8-0.1-5.6,0.4-8.5,0.2c-1.2-0.1-2.4-0.4-3.7-0.3
		c-0.8,0.1-1.6-1.5-1.3-2.3c1.6-6,3.3-11.9,4.9-17.9c1.4-5.3,2.8-10.6,4.2-16c1.5-5.5,3-11.1,4.4-16.6c0.7-2.5,1.4-5.1,2-7.6
		c0.2-0.9,0.6-1.6,1.5-2C277.6,7,281.1,7,284.5,7z M317,21.9c-0.2,0-0.4,0-0.6,0c-10.3,0-20.6,0-31,0c-1,0-1.4,0.5-1.7,1.3
		c-0.7,2.3-1.3,4.7-1.9,7.1c-0.2,0.8,0.2,1,1,1c10.2,0,20.4,0,30.6,0c0.8,0,1.3-0.3,1.5-1.1C315.8,27.4,316.5,24.7,317,21.9z"/>
	<path class="st1" d="M90.6,69.9c0-2.3-0.1-4.6,0-6.8c0.2-3,0-6.1,0.3-9.1c0.2-2.2,0-4.5,0.2-6.7c0.3-3.9,0.3-7.8,0.5-11.6
		c0.2-3.7,0.3-7.4,0.5-11.1c0.1-3.8,0.3-7.5,0.5-11.3c0.1-1.5,0.1-3,0.2-4.5c0-1.3,0.3-1.6,1.6-1.6c9,0,17.9,0,26.9,0
		c1.6,0,1.6,0,1.3,1.5c-0.6,3.2-1.3,6.5-1.9,9.7c-0.2,0.9-0.6,1.2-1.5,1.2c-3.9-0.1-7.8,0-11.6,0c-1.4,0-2.2,0.5-2.3,2.3
		c0,2.8-0.2,5.5-0.5,8.3c-0.1,1.4,0.5,1.8,1.7,1.7c6.2-0.3,12.4-0.2,18.5-0.2c5.5,0,11,0,16.6,0c1.5,0,1.9-0.3,1.9-1.8
		c-0.1-1.5-0.1-3,0.2-4.5c0.1-0.5,0.3-0.6,0.7-0.6c3.7,0,7.4,0,11,0c0.3,0,0.8-0.1,0.7,0.5c-0.1,2.7,0.3,5.3-0.2,8
		c-0.4,1.8-1.3,3.3-2.9,4.2c-1.1,0.6-1.2,1.1-0.5,2.1c1.8,2.4,2.9,5.1,2.5,8.2c-0.5,3.9-0.4,7.7-0.8,11.6c-0.3,3.6-1.9,6.7-5.1,8.9
		c-1.4,0.9-3,1.3-4.6,1.5c-0.4,0-0.8-0.2-1.1,0.2C125.8,69.9,108.2,69.9,90.6,69.9z M123.3,44.9c-3,0-6.1,0-9.1,0
		c-2.6,0-5.2,0-7.8,0c-2.3,0-2.2,0.5-2.2,2.1c0.1,2.5-0.4,4.9-0.2,7.4c0,0.2,0,0.4-0.1,0.6c-0.4,1.4,0.2,2.2,1.7,2.2
		c1.5,0,3,0,4.4,0c9.6,0,19.3,0,28.9,0c1.8,0,2.5-0.5,2.5-2.1c-0.1-3,0.4-5.9,0.3-8.8c0-1-0.3-1.4-1.4-1.4
		C134.7,44.9,129,44.9,123.3,44.9z"/>
	<path class="st0" d="M395.6,10.6c-1.1,2.9-1.6,5.9-2.4,8.9c-0.1,0.3-0.2,0.7-0.2,1c-0.2,0.9-0.7,1.4-1.7,1.4c-5.7,0-11.4,0-17.2,0
		c-1.2,0-1.7,0.6-2,1.5c-1.5,5.6-3,11.2-4.5,16.8c-1.7,6.6-3.4,13.2-5.1,19.8c-0.7,2.8-1.6,5.6-2.4,8.4c-0.2,0.9-0.8,1.2-1.6,1.2
		c-3.6,0-7.1,0-10.7,0c-1.7,0-2.5-1.2-2.1-2.8c2.1-7.8,4.2-15.7,6.2-23.6c1.7-6.6,3.5-13.1,5.4-19.6c0.1-0.5-0.1-1.1,0.5-1.5
		c-0.5-0.4-0.9-0.2-1.4-0.2c-5.4,0-10.8,0-16.2,0c-2.3,0-3-0.8-2.4-3c0.8-3.4,1.8-6.7,2.6-10.1c0.2-0.7,0.5-1.3,1.2-1.7
		c0.2,0,0.5,0,0.7,0c0.4,0.5,0.9,0.2,1.3,0.2c16.6,0,33.3,0,49.9,0c0.9,0,1.6,0.2,2.1,1C395.6,9,395.6,9.8,395.6,10.6z"/>
	<path class="st1" d="M60.6,7c0.5,1.3,0.3,2.7,0.2,4c-0.2,1.6-0.2,3.2-0.2,4.9c0,1.1-0.2,2.1-0.3,3.2c-0.1,0.7-0.5,0.7-1,0.7
		c-2.8,0-5.6,0-8.4,0c-3.6,0-7.2,0-10.8,0c-0.7,0-0.9,0.2-0.9,0.9c-0.2,3.9-0.3,7.8-0.5,11.6c-0.2,3.8-0.3,7.6-0.5,11.4
		c-0.1,3.8-0.3,7.6-0.5,11.4c-0.2,3.8-0.4,7.6-0.5,11.4c0,1.1-0.2,2.3-0.2,3.4c-4.3,0-8.6,0-13,0c-0.2-1.2,0.2-2.4,0.2-3.7
		c0-3.5,0.3-7,0.4-10.6c0.2-4.1,0.3-8.2,0.5-12.2c0.1-3.6,0.3-7.2,0.5-10.8c0.2-3.9,0.2-7.8,0.5-11.8c0.1-1-0.3-1.2-1.2-1.1
		c-6.2,0-12.4,0-18.6,0c-0.5,0-1,0.1-1.4-0.2c0-1.4,0-2.9,0-4.3c0.3-0.1,0.2-0.3,0.2-0.5c0-2.6-0.1-5.1,0.2-7.7
		C23.9,7,42.3,7,60.6,7z"/>
	<path class="st0" d="M189.7,7c-0.1,2.1-0.9,4-1.3,6c-0.5,2.4-1.2,4.7-1.8,7.1c-0.4,1.6-0.6,1.8-2.2,1.8c-14.9,0-29.7,0-44.6,0
		c-1.3,0-1.7,0.5-1.9,1.6c-0.3,1.4-0.6,2.8-1,4.2c-0.2,0.6-0.4,1-1.2,1c-4.3,0-8.6,0-12.8,0c-0.6,0-0.9,0.1-0.7-0.8
		c1.1-4.8,2-9.6,3-14.4c0.3-1.6,0.7-3.2,1-4.8c0.1-0.7,0.5-1.2,1.2-1.6C148.1,7,168.9,7,189.7,7z"/>
	<path class="st0" d="M210.1,7c0.4,0.5,0.9,0.2,1.3,0.2c15.8,0,31.7,0,47.5,0c1.9,0,2.8,1.1,2.3,2.9c-0.9,3.5-1.8,6.9-2.7,10.3
		c-0.2,0.9-0.8,1.4-1.9,1.4c-19.4,0-38.9,0-58.3,0c-1.7,0-2.6-1.1-2.2-2.9c0.9-3.5,1.9-6.9,2.8-10.4c0.2-0.8,0.6-1.3,1.3-1.6
		C203.5,7,206.8,7,210.1,7z"/>
	<path class="st1" d="M67.5,69.9c-0.5-1.1-0.4-2.3-0.2-3.4c0.4-1.8,0.2-3.6,0.3-5.4c0.2-2.8,0.5-5.7,0.3-8.6
		c-0.1-3.2,0.2-6.4,0.3-9.5c0.1-3.8,0.3-7.6,0.5-11.4c0.2-3.9,0.3-7.8,0.5-11.6c0.1-3.4,0.3-6.9,0.5-10.3c0.1-0.9,0-1.8,0.4-2.6
		c4.2,0,8.5,0,12.7,0c-0.1,0.3-0.3,0.5-0.2,0.8c0.2,2.5-0.2,4.9-0.3,7.4c-0.2,3.2-0.1,6.5-0.2,9.7c-0.2,2.9-0.3,5.8-0.5,8.7
		c-0.1,1.9-0.1,3.7-0.2,5.6c-0.2,4.1-0.2,8.2-0.5,12.2c-0.2,1.9,0,3.7-0.2,5.6c-0.3,3.1-0.1,6.3-0.3,9.4c-0.1,1.2-0.2,2.4-0.2,3.5
		C76,69.9,71.8,69.9,67.5,69.9z"/>
	<path class="st0" d="M217,55c9.7,0,19.3,0,29,0c2,0,2.6,0.8,2.2,2.8c-0.7,3.6-2,7.1-2.7,10.7c-0.2,0.8-0.7,1-1.4,1.1
		c-0.3,0.1-0.6,0-1,0c-18.9,0-37.7,0-56.6,0c-0.8,0-1.6-0.2-2.3-0.3c-0.9-0.2-1.3-1.1-1.1-1.9c0.9-3.8,1.9-7.5,2.9-11.3
		c0.2-0.8,0.8-1.2,1.8-1.2C197.6,55,207.3,55,217,55z"/>
	<path class="st0" d="M221.1,45.6c-9.8,0-19.5,0-29.3,0c-1.7,0-2.4-0.9-2-2.5c0.9-3.5,1.8-7.1,2.7-10.6c0.3-1.1,1-1.5,2.1-1.3
		c0.3,0.1,0.7,0,1.1,0c18.8,0,37.7,0,56.5,0c2.4,0,3,0.8,2.4,3.2c-0.9,3.4-1.8,6.7-2.6,10.1c-0.2,0.9-0.7,1.2-1.6,1.1
		C240.7,45.6,230.9,45.6,221.1,45.6z"/>
	<path class="st0" d="M166.6,55c2.4,0,4.8,0,7.2,0c2.3,0,3.3,1.1,2.7,3.4c-0.9,3.3-1.9,6.6-2.8,9.9c-0.2,0.8-0.6,1.1-1.4,1.1
		c-5.9-0.2-11.9,0.4-17.8,0.2c-0.2,0-0.5,0-0.7,0c-0.2,0-0.6,0.2-0.7-0.2c-0.1-0.3,0.3-0.5,0.4-0.6c2.3-2.4,3.3-5.4,3.9-8.6
		c0.3-1.5,0-3,0.4-4.5c0.2-0.7,0.4-0.8,1-0.8C161.3,55,163.9,55,166.6,55z"/>
	<path class="st0" d="M123.4,48.3c2,0,4.1,0,6.1,0c1,0,1.2,0.3,1,1.3c-0.3,1-0.5,2.1-0.7,3.2c-0.1,0.7-0.5,1-1.2,1
		c-4,0-8.1,0-12.1,0c-0.7,0-1-0.1-0.8-0.9c0.3-1.2,0.5-2.4,0.7-3.6c0.1-0.7,0.4-0.9,1.1-0.9C119.5,48.3,121.5,48.3,123.4,48.3
		C123.4,48.3,123.4,48.3,123.4,48.3z"/>
</g>
</svg>
