<?xml version="1.0" encoding="utf-8"?>
<!-- Generator: Adobe Illustrator 21.0.0, SVG Export Plug-In . SVG Version: 6.00 Build 0)  -->
<svg version="1.1" id="Layer_1" xmlns="http://www.w3.org/2000/svg" xmlns:xlink="http://www.w3.org/1999/xlink" x="0px" y="0px"
	 viewBox="0 0 402.1 75.2" style="enable-background:new 0 0 402.1 75.2;" xml:space="preserve">
<style type="text/css">
	.st0{fill:#464444;}
	.st1{fill:#EF482C;}
	.st2{fill:#59595B;}
</style>
<g>
	<path class="st0" d="M193.6,7c-0.1,2.1-0.9,4-1.3,6c-0.5,2.4-1.2,4.7-1.8,7.1c-0.4,1.6-0.6,1.8-2.2,1.8c-14.9,0-29.7,0-44.6,0
		c-1.3,0-1.7,0.5-1.9,1.6c-0.3,1.4-0.6,2.8-1,4.2c-0.2,0.6-0.4,1-1.2,1c-4.3,0-8.6,0-12.8,0c-0.6,0-0.9,0.1-0.7-0.8
		c1.1-4.8,2-9.6,3-14.4c0.3-1.6,0.7-3.2,1-4.8c0.1-0.7,0.5-1.2,1.2-1.6C152,7,172.8,7,193.6,7z"/>
	<path class="st0" d="M262.3,6.8c1.9,0,2.8,1.1,2.3,2.9c-0.9,3.5-1.8,6.9-2.7,10.3c-0.2,0.9-0.8,1.4-1.9,1.4c-19.4,0-38.9,0-58.3,0
		c-1.7,0-2.6-1.1-2.2-2.9c0.9-3.5,1.6-6,2.5-9.5c0.4-1.4,1-2.1,2.7-2.2C208.1,6.8,246.5,6.8,262.3,6.8z"/>
	<path class="st0" d="M397.8,6.5c-17.4,0-34.7,0-52.1,0c-0.2,0-0.5,0-0.7,0c-0.7,0.4-1,1-1.2,1.7c-0.9,3.4-1.8,6.7-2.6,10.1
		c-0.6,2.2,0.1,3,2.4,3c5.4,0,10.8,0,16.2,0c0.4,0,0.9-0.1,1.4,0.2c-0.6,0.4-0.3,1-0.5,1.5c-1.8,6.5-3.7,13-5.4,19.6
		c-2,7.9-4.1,15.8-6.2,23.6c-0.4,1.6,0.4,2.8,2.1,2.8c3.6,0,7.1,0,10.7,0c0.8,0,1.4-0.3,1.6-1.2c0.7-2.8,1.6-5.6,2.4-8.4
		c1.7-6.6,3.4-13.2,5.1-19.8c1.5-5.6,3-11.2,4.5-16.8c0.3-1,0.8-1.5,2-1.5c5.7,0.1,11.4,0,17.2,0c1.1,0,1.5-0.5,1.7-1.4
		c0.1-0.3,0.2-0.7,0.2-1c0.8-3,1.3-6,2.4-8.9c0-0.8,0-1.6,0-2.4C399.2,6.7,398.8,6.5,397.8,6.5z"/>
	<path class="st1" d="M63.6,7.1c0-0.3-0.3-0.6-0.6-0.6c-0.5,0-2.2,0-2.2,0s-35.4,0-51.3,0c-0.7,0-1.1,0.2-1.1,1c0,2.5,0,4.6,0,7.1
		c0,1.4,0,2.2,0,3.7c0.1,0.6,0.7,0.9,1.1,1c0.5,0,1,0,1.4,0c5.6,0,11.1,0,16.7,0c0.8,0,1.6,0.3,1.5,1.4c-0.2,3.6-0.3,7.3-0.5,10.9
		c-0.1,2-0.1,4.1-0.2,6.1c-0.3,4.7-0.4,9.5-0.6,14.2c-0.1,2.8-0.2,5.7-0.4,8.5c-0.1,2.4,0,4.9-0.4,7.3c-0.1,0.5-0.1,1.1,0.3,1.6h13
		c0-1.1,0.2-2.3,0.2-3.4c0.1-3.8,0.3-7.6,0.5-11.4c0.2-3.8,0.3-7.6,0.5-11.4c0.1-3.8,0.3-7.6,0.5-11.4c0.2-3.9,0.3-7.8,0.5-11.6
		c0-0.7,0.2-0.9,0.9-0.9c3.6,0,16.4,0,19.2,0c0.5,0,0.9,0,0.9-0.7c0-0.4,0-3.2,0-3.2v-4.8V7.1z"/>
	<path class="st0" d="M220.4,54.5c9.7,0,19.3,0,29,0c2,0,2.6,0.8,2.2,2.8c-0.7,3.6-2,7.1-2.7,10.7c-0.2,0.8-0.7,1-1.4,1.1
		c-0.3,0.1-0.6,0-1,0c-18.9,0-37.7,0-56.6,0c-0.8,0-1.6-0.2-2.3-0.3c-0.9-0.2-1.3-1.1-1.1-1.9c0.9-3.8,1.9-7.5,2.9-11.3
		c0.2-0.8,0.8-1.2,1.8-1.2C201,54.5,210.7,54.5,220.4,54.5z"/>
	<path class="st0" d="M224.5,45.2c-9.8,0-19.5,0-29.3,0c-1.7,0-2.4-0.9-2-2.5c0.9-3.5,1.8-7.1,2.7-10.6c0.3-1.1,1-1.5,2.1-1.3
		c0.3,0.1,0.7,0,1.1,0c18.8,0,37.7,0,56.5,0c2.4,0,3,0.8,2.4,3.2c-0.9,3.4-1.8,6.7-2.6,10.1c-0.2,0.9-0.7,1.2-1.6,1.1
		C244.1,45.1,234.3,45.2,224.5,45.2z"/>
	<path class="st0" d="M170,54.5c2.4,0,4.8,0,7.2,0c2.3,0,3.3,1.1,2.7,3.4c-0.9,3.3-1.9,6.6-2.8,9.9c-0.2,0.8-0.6,1.1-1.4,1.1
		c-5.9,0-11.9,0.2-17.8,0.2c-0.2,0-0.5,0-0.7,0c-0.2,0-0.6,0.2-0.7-0.2c-0.1-0.3,0.3-0.5,0.4-0.6c2.3-2.4,3.3-5.4,3.9-8.6
		c0.3-1.5,0-3,0.4-4.5c0.2-0.7,0.4-0.8,1-0.8C164.7,54.5,167.3,54.5,170,54.5z"/>
	<path class="st0" d="M336.3,14.1c-1-4.9-4.8-7.4-9.3-7.4c-12.6,0-44.9,0.1-48.3,0.1c-1.4,0.1-2,1.1-2.3,2c-0.8,2.6-1.6,4.7-2.3,7.3
		c-1.4,5.6-3,11.1-4.4,16.6c-1.4,5.3-2.8,10.7-4.2,16c-1.6,6-3.3,12-4.9,17.9c-0.2,0.7,0.5,2.3,1.3,2.3c1.2-0.1,2.4,0.2,3.7,0.3
		c2.8,0.1,5.6-0.4,8.5-0.2c0.8,0,1-0.5,1.1-1c0.5-1.7,0.9-3.4,1.4-5c1.6-6.3,3.2-12.6,4.9-18.9c0.4-1.5,0.6-3,1.5-4.4
		c3.5,4.8,6.8,9.5,10.3,14.1c3.5,4.7,7,9.4,10.3,14.2c0.6,0.8,1.4,1.3,2.5,1.3c2.7,0,5.4,0,8.2,0c2.2-0.1,4.4,0.3,6.7-0.2
		c1.4-0.3,1.9-1.6,1.1-2.7c-2.4-3.3-4.8-6.6-7.3-9.9c-2.5-3.4-4.9-6.7-7.4-10.1c-0.1-0.2-0.6-0.4-0.4-0.8c0.2-0.3,0.6-0.2,0.9-0.2
		c3.9-0.1,7.8,0.2,11.7-0.2c1.9-0.2,3.7-0.6,5.2-1.6c3.4-2.1,5.8-5.1,7-8.9c1.6-5.1,2.9-10.3,4.1-15.5
		C336.3,17.3,336.6,15.7,336.3,14.1z M318.4,29.7c-0.2,0.8-0.7,1.1-1.5,1.1c-10.2,0-20.4,0-30.6,0c-0.8,0-1.2-0.3-1-1
		c0.6-2.4,1.2-4.7,1.9-7.1c0.2-0.8,0.6-1.3,1.6-1.3c10.4,0,20.9,0,31.3,0c0.1,0,0.2,0,0.4,0C319.9,24.2,319.2,27,318.4,29.7z"/>
	<path class="st1" d="M156.3,36.9c1.6-0.9,2.6-2.3,2.9-4.2c0.5-2.6,0.1-5.3,0.2-8c0-0.6-0.4-0.5-0.7-0.5c-3.7,0-7.4,0-11,0
		c-0.5,0-0.6,0.1-0.7,0.6c-0.3,1.5-0.3,3-0.2,4.5c0.1,1.5-0.3,1.8-1.9,1.8c-5.5,0-11,0-16.6,0c-6.2,0-12.4-0.1-18.5,0.2
		c-1.3,0.1-1.8-0.3-1.7-1.7c0.2-2.8,0.4-5.5,0.5-8.3c0-1.7,0.9-2.3,2.3-2.3c3.9,0,7.8,0,11.6,0c1,0,1.3-0.3,1.5-1.2
		c0.6-3.2,1.3-6.5,1.9-9.7c0.3-1.5,0.3-1.5-1.3-1.5c-9,0-17.9,0-26.9,0c-1.3,0-1.6,0.3-1.6,1.6c-0.1,1.5-0.1,3-0.2,4.5
		c-0.2,3.8-0.4,7.5-0.5,11.3c-0.1,3.7-0.3,7.4-0.5,11.1c-0.2,3.9-0.2,7.8-0.5,11.6c-0.2,2.2,0,4.4-0.2,6.7c-0.2,3-0.1,6-0.3,9.1
		c-0.2,2.3,0,4.6,0,6.8c17.6,0,35.2,0,52.8,0c0.3-0.5,0.7-0.2,1.1-0.2c1.6-0.2,3.2-0.5,4.6-1.5c3.1-2.1,4.7-5.2,5.1-8.9
		c0.4-3.9,0.2-7.7,0.8-11.6c0.4-3.1-0.6-5.8-2.5-8.2C155.1,38,155.2,37.5,156.3,36.9z M144.8,54.6c0,1.5-0.7,2.1-2.5,2.1
		c-9.6,0-19.3,0-28.9,0c-1.5,0-3,0-4.4,0c-1.5,0-2.1-0.8-1.7-2.2c0-0.2,0.1-0.4,0.1-0.6c-0.2-2.5,0.3-4.9,0.2-7.4
		c0-1.6-0.2-2.1,2.2-2.1c2.6,0,5.2,0,7.8,0c3,0,6.1,0,9.1,0c5.7,0,11.4,0,17,0c1.1,0,1.3,0.3,1.4,1.4
		C145.2,48.7,144.7,51.6,144.8,54.6z"/>
	<path class="st2" d="M126.8,47.8c2.1,0,4.2,0,6.2,0c0.9,0,1.1,0.3,0.9,1.2c-0.3,1.1-0.5,2.3-0.7,3.4c-0.1,0.7-0.5,0.9-1.2,0.9
		c-4.1,0-8.1,0-12.2,0c-0.7,0-0.9-0.2-0.7-0.9c0.3-1.2,0.5-2.4,0.7-3.6c0.1-0.7,0.4-0.9,1.1-0.9C122.8,47.8,124.8,47.8,126.8,47.8
		C126.8,47.8,126.8,47.8,126.8,47.8z"/>
	<path class="st1" d="M83.7,69.6h-9.6c-0.8,0-1.4-0.6-1.4-1.4V7.8c0-0.8,0.6-1.4,1.4-1.4h9.6c0.8,0,1.4,0.6,1.4,1.4v60.4
		C85.1,69,84.5,69.6,83.7,69.6z"/>
</g>
</svg>
